HIERARCHY
ROOT Hips
{
	OFFSET 0.00000 0.00000 0.00000
	CHANNELS 6 Xposition Yposition Zposition Zrotation Yrotation Xrotation 
	JOINT LHipJoint
	{
		OFFSET 0 0 0
		CHANNELS 3 Zrotation Yrotation Xrotation
		JOINT LeftUpLeg
		{
			OFFSET 1.26600 -1.82114 0.91038
			CHANNELS 3 Zrotation Yrotation Xrotation
			JOINT LeftLeg
			{
				OFFSET 2.50076 -6.87080 0.00000
				CHANNELS 3 Zrotation Yrotation Xrotation
				JOINT LeftFoot
				{
					OFFSET 2.57364 -7.07102 0.00000
					CHANNELS 3 Zrotation Yrotation Xrotation
					JOINT LeftToeBase
					{
						OFFSET 0.13572 -0.37290 1.97004
						CHANNELS 3 Zrotation Yrotation Xrotation
						End Site
						{
							OFFSET 0.00000 -0.00000 1.01383
						}
					}
				}
			}
		}
	}
	JOINT RHipJoint
	{
		OFFSET 0 0 0
		CHANNELS 3 Zrotation Yrotation Xrotation
		JOINT RightUpLeg
		{
			OFFSET -1.20803 -1.82114 0.91038
			CHANNELS 3 Zrotation Yrotation Xrotation
			JOINT RightLeg
			{
				OFFSET -2.54916 -7.00377 0.00000
				CHANNELS 3 Zrotation Yrotation Xrotation
				JOINT RightFoot
				{
					OFFSET -2.56374 -7.04382 0.00000
					CHANNELS 3 Zrotation Yrotation Xrotation
					JOINT RightToeBase
					{
						OFFSET -0.23520 -0.64621 2.09921
						CHANNELS 3 Zrotation Yrotation Xrotation
						End Site
						{
							OFFSET -0.00000 -0.00000 1.10065
						}
					}
				}
			}
		}
	}
	JOINT LowerBack
	{
		OFFSET 0 0 0
		CHANNELS 3 Zrotation Yrotation Xrotation
		JOINT Spine
		{
			OFFSET 0.05492 2.10797 -0.12074
			CHANNELS 3 Zrotation Yrotation Xrotation
			JOINT Spine1
			{
				OFFSET 0.04577 2.11592 -0.04483
				CHANNELS 3 Zrotation Yrotation Xrotation
				JOINT Neck
				{
					OFFSET 0 0 0
					CHANNELS 3 Zrotation Yrotation Xrotation
					JOINT Neck1
					{
						OFFSET -0.10759 1.80167 0.15770
						CHANNELS 3 Zrotation Yrotation Xrotation
						JOINT Head
						{
							OFFSET 0.09237 1.77509 -0.40848
							CHANNELS 3 Zrotation Yrotation Xrotation
							End Site
							{
								OFFSET 0.03805 1.84093 -0.15754
							}
						}
					}
				}
				JOINT LeftShoulder
				{
					OFFSET 0 0 0
					CHANNELS 3 Zrotation Yrotation Xrotation
					JOINT LeftArm
					{
						OFFSET 3.42372 1.09575 -0.28209
						CHANNELS 3 Zrotation Yrotation Xrotation
						JOINT LeftForeArm
						{
							OFFSET 4.95681 -0.00000 0.00000
							CHANNELS 3 Zrotation Yrotation Xrotation
							JOINT LeftHand
							{
								OFFSET 3.40915 -0.00000 0.00000
								CHANNELS 3 Zrotation Yrotation Xrotation
								JOINT LeftFingerBase
								{
									OFFSET 0 0 0
									CHANNELS 3 Zrotation Yrotation Xrotation
									JOINT LeftHandIndex1
									{
										OFFSET 0.61640 -0.00000 0.00000
										CHANNELS 3 Zrotation Yrotation Xrotation
										End Site
										{
											OFFSET 0.49696 -0.00000 0.00000
										}
									}
								}
								JOINT LThumb
								{
									OFFSET 0 0 0
									CHANNELS 3 Zrotation Yrotation Xrotation
									End Site
									{
										OFFSET 0.50455 -0.00000 0.50455
									}
								}
							}
						}
					}
				}
				JOINT RightShoulder
				{
					OFFSET 0 0 0
					CHANNELS 3 Zrotation Yrotation Xrotation
					JOINT RightArm
					{
						OFFSET -3.24731 1.15872 -0.32221
						CHANNELS 3 Zrotation Yrotation Xrotation
						JOINT RightForeArm
						{
							OFFSET -5.35200 -0.00000 0.00000
							CHANNELS 3 Zrotation Yrotation Xrotation
							JOINT RightHand
							{
								OFFSET -3.43721 -0.00000 -0.00000
								CHANNELS 3 Zrotation Yrotation Xrotation
								JOINT RightFingerBase
								{
									OFFSET 0 0 0
									CHANNELS 3 Zrotation Yrotation Xrotation
									JOINT RightHandIndex1
									{
										OFFSET -0.72009 -0.00000 0.00000
										CHANNELS 3 Zrotation Yrotation Xrotation
										End Site
										{
											OFFSET -0.58056 -0.00000 0.00000
										}
									}
								}
								JOINT RThumb
								{
									OFFSET 0 0 0
									CHANNELS 3 Zrotation Yrotation Xrotation
									End Site
									{
										OFFSET -0.58942 -0.00000 0.58942
									}
								}
							}
						}
					}
				}
			}
		}
	}
}
MOTION
Frames: 14
Frame Time: .0083333
20.5472 17.5316 -20.8145 -174.2900 -24.2939 182.1480 0.0000 0.0000 0.0000 -12.5608 -2.8019 -18.3545 3.8518 11.9606 35.5926 1.3690 -4.5545 -21.0937 0.0517 1.4673 4.0357 0.0000 0.0000 0.0000 28.6679 -5.7963 -13.4420 -2.2628 -9.3932 27.0333 -1.0308 -1.9667 -19.9834 -0.0402 -1.2945 3.5596 5.3446 1.4345 5.1996 3.4978 1.9271 2.5008 0.5056 0.8748 -0.2695 -7.6673 4.4164 -15.9425 -0.7035 6.8545 36.5805 1.9646 0.8068 15.2561 -0.0000 -0.0000 0.0000 -89.4670 6.7588 18.5347 13.8444 -22.5118 -2.7682 -0.0000 -0.0000 3.6440 13.5930 20.7918 4.9057 -7.1250 0.0000 -0.0000 -14.9855 50.7087 -2.1496 -0.0000 -0.0000 0.0000 86.2560 2.6441 23.2937 -14.8367 23.9182 -3.1594 0.0000 -0.0000 -11.4659 -21.7413 10.7802 -4.2657 7.1250 -0.0000 -0.0000 3.7594 -18.4100 2.3849
20.5582 17.5276 -20.8281 -174.5020 -24.9311 182.1860 0.0000 0.0000 0.0000 -12.9186 -1.5219 -18.8394 3.8966 12.0215 35.8081 1.4219 -2.8019 -21.8046 0.0052 0.4669 1.2829 0.0000 0.0000 0.0000 28.5395 -5.9237 -13.4565 -2.2678 -9.4030 27.0642 -1.0053 -2.6721 -20.0809 -0.0052 -0.4666 1.2820 4.9477 1.3952 5.0204 3.4874 1.8418 2.6063 0.7253 0.8358 -0.0775 -6.5903 4.7024 -15.4841 -1.4939 7.1653 36.3924 1.4891 0.9931 15.1401 -0.0000 -0.0000 0.0000 -89.5225 6.7273 18.1652 14.1403 -22.9349 -2.8825 -0.0000 -0.0000 3.3298 13.9046 21.1995 5.1156 -7.1250 0.0000 -0.0000 -14.8563 51.1585 -2.2970 -0.0000 -0.0000 0.0000 86.2906 2.7559 23.5717 -14.9974 24.1425 -3.2249 0.0000 -0.0000 -10.6559 -21.6173 9.9223 -3.9063 7.1250 -0.0000 -0.0000 3.8240 -19.3361 2.3473
20.5680 17.5237 -20.8436 -174.5720 -25.6354 182.0850 0.0000 0.0000 0.0000 -13.1305 -0.1794 -19.2864 3.9386 12.0783 36.0095 1.4514 -1.8324 -22.2598 0.0125 0.7214 1.9826 0.0000 0.0000 0.0000 28.5390 -6.0842 -13.3597 -2.2749 -9.4165 27.1072 -0.9747 -3.2676 -20.1002 -0.0024 -0.3140 0.8629 4.8101 1.3827 4.9556 3.4189 1.8155 2.6741 0.7349 0.8266 0.0250 -6.8292 4.7862 -15.9217 -1.1015 7.2849 36.8863 1.7296 1.0259 15.4419 0.0000 -0.0000 0.0000 -89.2583 6.8050 18.4959 14.4645 -23.3948 -3.0101 -0.0000 -0.0000 2.5267 14.0583 21.8344 5.3208 -7.1250 0.0000 -0.0000 -14.9796 51.8060 -2.5582 0.0000 -0.0000 0.0000 86.4707 2.7495 23.7010 -15.1352 24.3341 -3.2814 0.0000 -0.0000 -10.0940 -21.4726 9.5891 -3.7490 7.1250 -0.0000 -0.0000 3.9196 -19.7026 2.3742
20.5758 17.5202 -20.8588 -174.4230 -26.5315 181.9500 0.0000 0.0000 0.0000 -13.1180 1.0772 -19.8673 3.9821 12.1365 36.2167 1.4758 -1.5469 -22.5249 0.0845 1.8751 5.1606 0.0000 0.0000 0.0000 28.7537 -6.4072 -13.3927 -2.2775 -9.4217 27.1236 -0.9727 -3.6783 -20.3035 -0.0060 -0.5001 1.3743 4.9825 1.4134 4.8297 3.4391 1.8502 2.7078 0.6620 0.8469 0.1366 -6.7466 4.8024 -15.9558 -1.0937 7.2932 37.0660 1.7239 1.0321 15.5415 -0.0000 0.0000 0.0000 -89.1377 6.7616 18.7277 14.7253 -23.7621 -3.1144 -0.0000 -0.0000 1.9176 13.9554 21.2409 5.1444 -7.1250 0.0000 -0.0000 -14.8248 51.2075 -2.3100 -0.0000 0.0000 0.0000 86.4421 2.6813 23.8596 -15.3101 24.5763 -3.3538 0.0000 -0.0000 -10.3103 -20.7110 9.5770 -3.5994 7.1250 -0.0000 -0.0000 4.4632 -19.7705 2.6986
20.5853 17.5154 -20.8703 -174.1220 -27.4512 181.7920 0.0000 0.0000 0.0000 -12.9677 2.0806 -20.4793 4.0199 12.1869 36.3963 1.4769 -1.3357 -22.5900 0.2464 3.1942 8.8200 0.0000 0.0000 0.0000 29.1286 -6.6813 -13.5022 -2.2770 -9.4207 27.1205 -0.9653 -4.1763 -20.5169 -0.0070 -0.5383 1.4793 5.2841 1.5612 4.6771 3.5956 2.0340 2.7371 0.6529 0.9382 0.2635 -6.9580 4.6232 -15.8329 -1.0763 7.0865 37.0696 1.7313 0.9269 15.5137 -0.0000 0.0000 0.0000 -89.2340 6.7740 19.2849 15.1583 -24.3661 -3.2910 -0.0000 -0.0000 1.1034 13.7326 20.6232 4.9196 -7.1250 0.0000 -0.0000 -14.7828 50.5658 -2.0667 -0.0000 0.0000 0.0000 86.1518 2.6111 23.8054 -15.4411 24.7570 -3.4085 0.0000 -0.0000 -10.9608 -20.2393 10.0176 -3.6698 7.1250 -0.0000 -0.0000 4.8062 -19.3376 2.9539
20.5947 17.5068 -20.8795 -173.9400 -28.2898 181.5930 0.0000 0.0000 0.0000 -12.9494 2.9734 -20.8699 4.0414 12.2153 36.4978 1.4567 -1.0573 -22.5097 0.4178 4.1487 11.4954 0.0000 0.0000 0.0000 29.3806 -6.8697 -13.4955 -2.2823 -9.4309 27.1529 -0.9529 -4.7871 -20.7661 -0.0041 -0.4135 1.1363 5.4148 1.6691 4.6510 3.7019 2.1694 2.7833 0.6863 1.0045 0.3313 -6.8713 4.5321 -15.5951 -1.2290 6.9675 36.9454 1.6274 0.8880 15.4156 -0.0000 0.0000 0.0000 -89.2194 6.8605 20.0193 15.5772 -24.9440 -3.4657 -0.0000 -0.0000 0.0686 13.6534 20.7003 4.9076 -7.1250 0.0000 -0.0000 -14.8900 50.6288 -2.1057 -0.0000 0.0000 0.0000 86.0169 2.6091 23.6173 -15.4886 24.8223 -3.4284 0.0000 -0.0000 -10.9786 -20.5346 10.3731 -3.8584 7.1250 -0.0000 -0.0000 4.6026 -18.9394 2.8688
20.5999 17.5008 -20.8922 -173.8760 -29.0997 181.3590 0.0000 0.0000 0.0000 -13.0281 4.0345 -21.0795 4.0381 12.2110 36.4825 1.3711 -0.8709 -21.8791 0.3944 4.0323 11.1674 0.0000 0.0000 0.0000 29.4906 -6.9961 -13.3924 -2.3068 -9.4778 27.3017 -0.9322 -5.4934 -21.0226 -0.0005 -0.1463 0.4020 5.4301 1.6713 4.7587 3.7310 2.1794 2.7968 0.7045 1.0080 0.2851 -6.5605 4.5421 -15.3371 -1.5056 6.9649 36.8235 1.4517 0.9077 15.3261 -0.0000 0.0000 0.0000 -89.2125 7.0772 20.0670 15.9312 -25.4272 -3.6164 -0.0000 0.0000 -0.2368 13.6623 20.1626 4.7893 -7.1250 0.0000 -0.0000 -14.6649 50.1029 -1.8801 -0.0000 0.0000 0.0000 86.0112 2.5522 23.6797 -15.5432 24.8974 -3.4514 0.0000 -0.0000 -10.9598 -20.7844 10.4437 -3.9358 7.1250 -0.0000 -0.0000 4.4270 -18.8453 2.7680
20.6018 17.4976 -20.9075 -173.8880 -29.9345 181.2290 0.0000 0.0000 0.0000 -13.1636 4.9960 -21.2789 4.0068 12.1694 36.3339 1.1840 -0.3323 -20.4710 0.0881 1.9147 5.2700 0.0000 0.0000 0.0000 29.5163 -7.0652 -13.3750 -2.3487 -9.5575 27.5552 -0.9334 -6.0737 -21.4211 -0.0007 -0.1665 0.4575 5.4385 1.6936 4.8263 3.6994 2.2266 2.7273 0.6620 1.0323 0.1781 -6.1393 4.5191 -14.9866 -1.8368 6.8847 36.6794 1.2198 0.9040 15.2142 0.0000 0.0000 0.0000 -89.1523 7.3741 20.0536 16.3414 -25.9814 -3.7943 -0.0000 0.0000 -0.2357 13.2738 19.6113 4.5272 -7.1250 0.0000 -0.0000 -14.8169 49.5023 -1.6779 0.0000 0.0000 0.0000 85.9893 2.4039 23.7676 -15.5744 24.9402 -3.4645 0.0000 -0.0000 -11.1796 -20.5915 10.3719 -3.8696 7.1250 -0.0000 -0.0000 4.5622 -18.9364 2.8438
20.6033 17.4873 -20.9197 -174.0660 -30.8407 181.2030 0.0000 0.0000 0.0000 -13.4954 5.5877 -21.3346 3.9504 12.0942 36.0659 1.0510 0.0526 -19.4051 0.0104 0.6587 1.8102 0.0000 0.0000 0.0000 29.3590 -7.3014 -13.4773 -2.3971 -9.6483 27.8452 -0.9747 -6.2976 -21.9462 -0.0077 -0.5656 1.5542 5.2991 1.7297 4.8853 3.6636 2.2905 2.6366 0.6959 1.0644 0.0480 -5.8063 4.4711 -14.5940 -2.1043 6.7668 36.5508 1.0233 0.8798 15.0928 0.0000 0.0000 0.0000 -89.0559 7.5657 20.4728 16.6841 -26.4395 -3.9457 -0.0000 0.0000 -0.7729 13.0389 19.9700 4.5222 -7.1250 0.0000 -0.0000 -15.1798 49.8178 -1.8406 0.0000 0.0000 0.0000 85.8996 2.2883 23.5537 -15.5227 24.8692 -3.4428 0.0000 -0.0000 -11.0523 -20.5471 10.5126 -3.9122 7.1250 -0.0000 -0.0000 4.5965 -18.7907 2.8802
20.6062 17.4771 -20.9305 -174.1930 -31.8325 181.0870 0.0000 0.0000 0.0000 -13.7747 6.0947 -21.2748 3.8821 12.0018 35.7384 0.9839 0.1574 -18.8108 0.0050 0.4552 1.2508 0.0000 0.0000 0.0000 29.2316 -7.6059 -13.5540 -2.4447 -9.7367 28.1283 -1.0159 -6.4858 -22.4372 -0.0232 -0.9831 2.7023 5.2236 1.7637 5.0417 3.6870 2.3554 2.5547 0.7524 1.0941 -0.1267 -5.7944 4.3378 -14.1938 -2.1909 6.5507 36.4473 0.9418 0.7926 14.9606 -0.0000 0.0000 0.0000 -89.0347 7.6201 20.9215 16.8533 -26.6640 -4.0213 -0.0000 0.0000 -1.3159 13.6793 20.0912 4.7793 -7.1250 0.0000 -0.0000 -14.6203 50.0353 -1.8495 -0.0000 0.0000 0.0000 85.7328 2.0866 23.1866 -15.5608 24.9215 -3.4588 0.0000 -0.0000 -10.9278 -20.6369 10.6421 -3.9785 7.1250 -0.0000 -0.0000 4.5357 -18.6464 2.8564
20.6075 17.4802 -20.9447 -174.2550 -32.8729 180.9810 0.0000 0.0000 0.0000 -13.9599 6.6495 -21.3479 3.8162 11.9117 35.4204 0.9228 -0.1091 -18.1251 0.0020 0.2879 0.7909 0.0000 0.0000 0.0000 29.1825 -7.7529 -13.5618 -2.4808 -9.8030 28.3410 -1.0417 -6.9029 -22.9483 -0.0389 -1.2730 3.5002 5.3263 1.8003 5.1896 3.6218 2.4389 2.4192 0.6169 1.1359 -0.3398 -5.7607 4.2137 -13.9275 -2.1192 6.3021 36.4956 0.9208 0.7053 14.9235 -0.0000 -0.0000 0.0000 -88.8831 7.6622 21.2497 16.9866 -26.8402 -4.0813 -0.0000 0.0000 -1.5367 14.1747 19.7500 4.8782 -7.1250 0.0000 -0.0000 -14.0172 49.7758 -1.6797 -0.0000 -0.0000 0.0000 85.7585 1.7371 22.7112 -15.6757 25.0789 -3.5074 0.0000 -0.0000 -10.7654 -20.7870 10.7459 -4.0486 7.1250 -0.0000 -0.0000 4.4320 -18.5246 2.8026
20.6058 17.4845 -20.9612 -174.4660 -33.8765 181.0030 0.0000 0.0000 0.0000 -14.2784 7.0308 -21.4251 3.7606 11.8349 35.1503 0.8669 -0.5100 -17.4337 0.0023 -0.3123 -0.8581 0.0000 0.0000 0.0000 29.0084 -7.8663 -13.5253 -2.4954 -9.8295 28.4264 -1.0194 -7.5675 -23.2354 -0.0331 -1.1752 3.2309 5.2712 1.7911 5.3625 3.4776 2.4697 2.2048 0.4872 1.1519 -0.6538 -5.6888 4.2640 -13.8766 -1.8578 6.2501 36.8338 1.0066 0.7070 15.0608 -0.0000 0.0000 0.0000 -88.7091 8.0440 21.3761 17.3381 -27.3013 -4.2412 -0.0000 0.0000 -1.7184 14.1016 19.6311 4.8242 -7.1250 0.0000 -0.0000 -14.0413 49.6473 -1.6376 -0.0000 0.0000 0.0000 85.8925 1.3892 22.2205 -15.6846 25.0912 -3.5112 0.0000 -0.0000 -10.2211 -20.9859 11.0251 -4.1955 7.1250 -0.0000 -0.0000 4.2987 -18.2120 2.7476
20.5997 17.4833 -20.9760 -174.4670 -34.8604 180.9160 0.0000 0.0000 0.0000 -14.3808 7.1755 -21.4151 3.7128 11.7680 34.9163 0.8510 -1.1262 -17.0882 0.0055 -0.4777 -1.3127 0.0000 0.0000 0.0000 29.0241 -8.1691 -13.5306 -2.4978 -9.8340 28.4407 -1.0001 -8.1062 -23.4747 -0.0223 -0.9647 2.6518 5.2963 1.7814 5.3234 3.4613 2.4676 2.1112 0.4561 1.1516 -0.7272 -6.1347 4.2579 -14.0952 -1.1962 6.1533 37.3285 1.3501 0.6620 15.2994 0.0000 -0.0000 0.0000 -88.6411 8.4101 21.6895 17.7488 -27.8343 -4.4313 -0.0000 0.0000 -2.1528 14.1217 19.6182 4.8283 -7.1250 0.0000 -0.0000 -14.0174 49.6377 -1.6314 0.0000 -0.0000 0.0000 85.7627 1.2060 22.1764 -15.7560 25.1887 -3.5415 0.0000 -0.0000 -10.3294 -20.8949 10.9115 -4.1333 7.1250 -0.0000 -0.0000 4.3598 -18.3401 2.7746
20.5886 17.4756 -20.9854 -174.1680 -35.9001 180.5970 0.0000 0.0000 0.0000 -14.1899 7.1931 -21.3666 3.6678 11.7047 34.6952 0.8429 -1.9308 -16.8019 0.0008 0.1813 0.4982 0.0000 0.0000 0.0000 29.2903 -8.6785 -13.5511 -2.5027 -9.8429 28.4694 -1.0157 -8.4214 -23.8466 -0.0195 -0.9019 2.4789 5.5880 1.7992 4.9661 3.5787 2.4526 2.2883 0.4315 1.1494 -0.3365 -6.3536 4.1136 -14.0423 -1.2027 6.0625 36.9761 1.3740 0.6376 15.1123 -0.0000 -0.0000 0.0000 -88.8083 8.3415 21.9691 18.1058 -28.2924 -4.5993 -0.0000 0.0000 -2.3199 14.2788 19.1499 4.7724 -7.1250 0.0000 -0.0000 -13.6943 49.1986 -1.4423 -0.0000 -0.0000 0.0000 85.3993 1.3112 22.4487 -15.8980 25.3821 -3.6021 0.0000 -0.0000 -11.0350 -20.8562 10.5134 -3.9766 7.1250 -0.0000 -0.0000 4.3778 -18.7658 2.7447
